<svg id="Outline_gradient" height="512" viewBox="0 0 128 128" width="512" xmlns="http://www.w3.org/2000/svg" xmlns:xlink="http://www.w3.org/1999/xlink"><linearGradient id="SVGID_1_" gradientUnits="userSpaceOnUse" x1="12.775" x2="115.225" y1="64" y2="64"><stop offset="0" stop-color="#2a97ff"/><stop offset="1" stop-color="#e100ff"/></linearGradient><g><g><g><g><g><g><path d="m68.58 60.524c-25.539 0-45.545-10.218-45.545-23.262s20.006-23.262 45.545-23.262c25.538 0 45.543 10.218 45.543 23.263 0 13.043-20.005 23.261-45.543 23.261zm0-43.524c-23.062 0-42.545 9.279-42.545 20.263 0 10.983 19.483 20.262 42.545 20.262 23.061 0 42.543-9.279 42.543-20.262 0-10.984-19.482-20.263-42.543-20.263z" fill="url(#SVGID_1_)"/></g><g><path d="m68.58 74.815c-25.539 0-45.545-10.218-45.545-23.262l.063-1.22-.063-13.064c-.004-.828.665-1.503 1.493-1.507h.007c.825 0 1.496.667 1.5 1.493l.061 13.15-.063 1.227c.002 10.903 19.485 20.182 42.547 20.182 23.061 0 42.543-9.279 42.543-20.262v-14.29c0-.829.671-1.5 1.5-1.5s1.5.671 1.5 1.5v14.291c0 13.044-20.005 23.262-45.543 23.262z" fill="url(#SVGID_1_)"/></g></g><g><g><path d="m68.58 74.25c-.829 0-1.5-.671-1.5-1.5v-13.726c0-.829.671-1.5 1.5-1.5s1.5.671 1.5 1.5v13.726c0 .829-.671 1.5-1.5 1.5z" fill="url(#SVGID_1_)"/></g><g><path d="m55.629 73.584c-.829 0-1.5-.671-1.5-1.5v-13.726c0-.829.671-1.5 1.5-1.5s1.5.671 1.5 1.5v13.727c0 .828-.671 1.499-1.5 1.499z" fill="url(#SVGID_1_)"/></g><g><path d="m44.129 71.143c-.829 0-1.5-.671-1.5-1.5v-13.728c0-.829.671-1.5 1.5-1.5s1.5.671 1.5 1.5v13.729c0 .828-.671 1.499-1.5 1.499z" fill="url(#SVGID_1_)"/></g><g><path d="m34.797 66.721c-.829 0-1.5-.671-1.5-1.5v-13.728c0-.829.671-1.5 1.5-1.5s1.5.671 1.5 1.5v13.729c0 .828-.672 1.499-1.5 1.499z" fill="url(#SVGID_1_)"/></g><g><path d="m28.963 62.221c-.829 0-1.5-.671-1.5-1.5v-13.728c0-.829.671-1.5 1.5-1.5s1.5.671 1.5 1.5v13.729c0 .828-.671 1.499-1.5 1.499z" fill="url(#SVGID_1_)"/></g></g><g><path d="m81.529 73.584c-.829 0-1.5-.671-1.5-1.5v-13.726c0-.829.671-1.5 1.5-1.5s1.5.671 1.5 1.5v13.727c0 .828-.671 1.499-1.5 1.499z" fill="url(#SVGID_1_)"/></g><g><path d="m93.029 71.143c-.829 0-1.5-.671-1.5-1.5v-13.728c0-.829.671-1.5 1.5-1.5s1.5.671 1.5 1.5v13.729c0 .828-.671 1.499-1.5 1.499z" fill="url(#SVGID_1_)"/></g><g><path d="m102.361 66.721c-.829 0-1.5-.671-1.5-1.5v-13.728c0-.829.671-1.5 1.5-1.5s1.5.671 1.5 1.5v13.729c0 .828-.671 1.499-1.5 1.499z" fill="url(#SVGID_1_)"/></g><g><path d="m108.195 62.221c-.829 0-1.5-.671-1.5-1.5v-13.728c0-.829.671-1.5 1.5-1.5s1.5.671 1.5 1.5v13.729c0 .828-.671 1.499-1.5 1.499z" fill="url(#SVGID_1_)"/></g></g><g><g><g><path d="m58.318 81.336c-25.538 0-45.543-10.218-45.543-23.262 0-5.662 3.917-11.086 11.03-15.273.713-.421 1.634-.183 2.053.532.42.714.182 1.633-.532 2.053-6.16 3.626-9.552 8.132-9.552 12.688 0 10.983 19.482 20.262 42.543 20.262 16.253 0 31.346-4.591 38.451-11.695.586-.586 1.535-.586 2.121 0 .586.585.586 1.536 0 2.121-7.754 7.757-23.301 12.574-40.571 12.574z" fill="url(#SVGID_1_)"/></g><g><path d="m58.318 95.627c-25.538 0-45.543-10.218-45.543-23.262l.063-1.218-.063-13.066c-.004-.828.665-1.503 1.493-1.507h.007c.825 0 1.496.667 1.5 1.493l.061 13.152-.063 1.225c.002 10.903 19.484 20.182 42.545 20.182s42.543-9.279 42.543-20.262v-7.145c0-.829.671-1.5 1.5-1.5s1.5.671 1.5 1.5v7.145c0 13.046-20.005 23.263-45.543 23.263z" fill="url(#SVGID_1_)"/></g></g><g><g><path d="m58.318 95.065c-.829 0-1.5-.671-1.5-1.5v-13.729c0-.829.671-1.5 1.5-1.5s1.5.671 1.5 1.5v13.729c0 .829-.671 1.5-1.5 1.5z" fill="url(#SVGID_1_)"/></g><g><path d="m45.369 94.399c-.829 0-1.5-.671-1.5-1.5v-13.729c0-.829.671-1.5 1.5-1.5s1.5.671 1.5 1.5v13.729c0 .829-.671 1.5-1.5 1.5z" fill="url(#SVGID_1_)"/></g><g><path d="m33.869 91.956c-.829 0-1.5-.671-1.5-1.5v-13.727c0-.829.671-1.5 1.5-1.5s1.5.671 1.5 1.5v13.727c0 .828-.671 1.5-1.5 1.5z" fill="url(#SVGID_1_)"/></g><g><path d="m24.535 87.534c-.829 0-1.5-.671-1.5-1.5v-13.727c0-.829.671-1.5 1.5-1.5s1.5.671 1.5 1.5v13.727c0 .828-.671 1.5-1.5 1.5z" fill="url(#SVGID_1_)"/></g><g><path d="m18.703 83.034c-.829 0-1.5-.671-1.5-1.5v-13.727c0-.829.671-1.5 1.5-1.5s1.5.671 1.5 1.5v13.727c0 .828-.671 1.5-1.5 1.5z" fill="url(#SVGID_1_)"/></g></g><g><path d="m71.268 94.399c-.829 0-1.5-.671-1.5-1.5v-13.729c0-.829.671-1.5 1.5-1.5s1.5.671 1.5 1.5v13.729c0 .829-.672 1.5-1.5 1.5z" fill="url(#SVGID_1_)"/></g><g><path d="m82.768 91.956c-.829 0-1.5-.671-1.5-1.5v-13.727c0-.829.671-1.5 1.5-1.5s1.5.671 1.5 1.5v13.727c0 .828-.672 1.5-1.5 1.5z" fill="url(#SVGID_1_)"/></g><g><path d="m92.102 87.534c-.829 0-1.5-.671-1.5-1.5v-13.727c0-.829.671-1.5 1.5-1.5s1.5.671 1.5 1.5v13.727c0 .828-.672 1.5-1.5 1.5z" fill="url(#SVGID_1_)"/></g><g><path d="m97.936 83.034c-.829 0-1.5-.671-1.5-1.5v-13.727c0-.829.671-1.5 1.5-1.5s1.5.671 1.5 1.5v13.727c0 .828-.672 1.5-1.5 1.5z" fill="url(#SVGID_1_)"/></g></g><g><g><g><path d="m69.68 99.709c-11.734 0-22.855-2.234-31.316-6.292-.747-.358-1.063-1.254-.704-2.001.358-.748 1.255-1.061 2.001-.704 8.064 3.867 18.726 5.997 30.02 5.997 23.062 0 42.545-9.279 42.545-20.262 0-5.221-4.251-9.188-7.818-11.597-.687-.464-.867-1.396-.404-2.083s1.396-.868 2.083-.404c5.979 4.038 9.139 8.908 9.139 14.083-.001 13.046-20.007 23.263-45.546 23.263z" fill="url(#SVGID_1_)"/></g><g><path d="m69.68 114c-25.538 0-45.543-10.218-45.543-23.262l.063-1.22-.014-2.531c-.004-.829.665-1.503 1.493-1.507h.007c.826 0 1.496.667 1.5 1.493l.012 2.617-.063 1.227c.002 10.905 19.484 20.183 42.545 20.183 23.062 0 42.545-9.279 42.545-20.262v-14.29c0-.829.671-1.5 1.5-1.5s1.5.671 1.5 1.5v14.291c0 13.044-20.006 23.261-45.545 23.261z" fill="url(#SVGID_1_)"/></g></g><g><g><path d="m69.68 113.436c-.829 0-1.5-.671-1.5-1.5v-13.727c0-.829.671-1.5 1.5-1.5s1.5.671 1.5 1.5v13.727c0 .829-.672 1.5-1.5 1.5z" fill="url(#SVGID_1_)"/></g><g><path d="m56.73 112.77c-.829 0-1.5-.671-1.5-1.5v-13.727c0-.829.671-1.5 1.5-1.5s1.5.671 1.5 1.5v13.727c0 .829-.671 1.5-1.5 1.5z" fill="url(#SVGID_1_)"/></g><g><path d="m45.23 110.329c-.829 0-1.5-.671-1.5-1.5v-13.729c0-.829.671-1.5 1.5-1.5s1.5.671 1.5 1.5v13.729c0 .828-.671 1.5-1.5 1.5z" fill="url(#SVGID_1_)"/></g><g><path d="m35.898 105.907c-.829 0-1.5-.671-1.5-1.5v-12.99c0-.829.671-1.5 1.5-1.5s1.5.671 1.5 1.5v12.99c0 .828-.671 1.5-1.5 1.5z" fill="url(#SVGID_1_)"/></g><g><path d="m30.064 101.407c-.829 0-1.5-.671-1.5-1.5v-10.848c0-.829.671-1.5 1.5-1.5s1.5.671 1.5 1.5v10.848c0 .828-.671 1.5-1.5 1.5z" fill="url(#SVGID_1_)"/></g></g><g><path d="m82.631 112.77c-.829 0-1.5-.671-1.5-1.5v-13.727c0-.829.671-1.5 1.5-1.5s1.5.671 1.5 1.5v13.727c0 .829-.672 1.5-1.5 1.5z" fill="url(#SVGID_1_)"/></g><g><path d="m94.131 110.329c-.829 0-1.5-.671-1.5-1.5v-13.729c0-.829.671-1.5 1.5-1.5s1.5.671 1.5 1.5v13.729c0 .828-.672 1.5-1.5 1.5z" fill="url(#SVGID_1_)"/></g><g><path d="m103.463 105.907c-.829 0-1.5-.671-1.5-1.5v-13.729c0-.829.671-1.5 1.5-1.5s1.5.671 1.5 1.5v13.729c0 .828-.671 1.5-1.5 1.5z" fill="url(#SVGID_1_)"/></g><g><path d="m109.297 101.407c-.829 0-1.5-.671-1.5-1.5v-13.729c0-.829.671-1.5 1.5-1.5s1.5.671 1.5 1.5v13.729c0 .828-.672 1.5-1.5 1.5z" fill="url(#SVGID_1_)"/></g></g></g><g><g><path d="m51.248 39.493c-.505 0-.998-.255-1.281-.717-.432-.707-.209-1.63.497-2.063l19.34-11.83c.708-.432 1.63-.209 2.063.497.432.707.209 1.63-.497 2.063l-19.34 11.83c-.245.149-.516.22-.782.22z" fill="url(#SVGID_1_)"/></g><g><path d="m52.119 43.963c-.505 0-.998-.255-1.281-.717-.433-.707-.21-1.63.497-2.062l3.572-2.186c.707-.435 1.63-.21 2.062.497.433.707.21 1.63-.497 2.062l-3.572 2.186c-.244.15-.515.22-.781.22z" fill="url(#SVGID_1_)"/></g><g><path d="m75.105 29.903c-.505 0-.998-.255-1.281-.717-.433-.707-.21-1.63.496-2.063l3.66-2.24c.707-.432 1.63-.21 2.063.496s.21 1.63-.496 2.063l-3.66 2.24c-.245.15-.515.221-.782.221z" fill="url(#SVGID_1_)"/></g><g><path d="m57.832 47.143c-.505 0-.998-.255-1.281-.717-.432-.707-.209-1.63.497-2.063l3.787-2.316c.707-.433 1.63-.209 2.063.497.432.707.209 1.63-.497 2.063l-3.787 2.316c-.245.149-.516.22-.782.22z" fill="url(#SVGID_1_)"/></g><g><path d="m81.589 32.608c-.505 0-.999-.255-1.281-.718-.432-.707-.209-1.63.498-2.062l2.889-1.766c.708-.432 1.63-.21 2.062.498.432.707.209 1.63-.498 2.062l-2.889 1.766c-.244.149-.514.22-.781.22z" fill="url(#SVGID_1_)"/></g><g><path d="m79.114 41.631c-1.761 0-3.767-.491-5.87-1.853l-15.454-8.01c-.735-.381-1.022-1.287-.641-2.022.381-.734 1.287-1.023 2.022-.641l15.52 8.045c.045.023.089.049.132.077 4.624 3.03 7.922.249 8.06.13.739-.661 1.072-1.256.983-1.761-.196-1.114-2.232-2.413-3.547-2.94-.036-.015-.075-.032-.11-.049l-14.375-7.125c-.742-.368-1.046-1.268-.678-2.01.368-.743 1.269-1.047 2.01-.678l14.324 7.099c.713.292 4.779 2.081 5.329 5.176.196 1.098.017 2.776-1.943 4.53-1.038.93-3.126 2.031-5.762 2.032z" fill="url(#SVGID_1_)"/></g><g><path d="m73.415 49.881c-1.808 0-3.868-.504-6.028-1.902l-19.948-10.258c-.737-.379-1.027-1.283-.648-2.02.379-.736 1.281-1.028 2.02-.648l20.016 10.293c.046.024.092.05.136.079 4.864 3.186 8.324.169 8.358.139.785-.702 1.133-1.33 1.038-1.868-.229-1.29-2.625-2.644-3.683-3.063-.77-.305-1.146-1.177-.841-1.947s1.177-1.147 1.947-.841c.505.2 4.947 2.051 5.53 5.326.2 1.121.016 2.833-1.989 4.627-1.063.954-3.203 2.083-5.908 2.083z" fill="url(#SVGID_1_)"/></g><g><path d="" fill="url(#SVGID_1_)"/></g><g><path d="" fill="url(#SVGID_1_)"/></g></g></g></g></svg>