<svg id="multi_x5F_cores" enable-background="new 0 0 100 100" viewBox="0 0 100 100" xmlns="http://www.w3.org/2000/svg"><g><path d="m52.5 35h10v30h-10z" fill="#81e9ff"/><path d="m62.5 33.5h-3.5v-3.5c0-.829-.672-1.5-1.5-1.5s-1.5.671-1.5 1.5v3.5h-3.5c-.828 0-1.5.671-1.5 1.5v30c0 .828.672 1.5 1.5 1.5h3.5v8.5c0 .828.672 1.5 1.5 1.5s1.5-.672 1.5-1.5v-8.5h3.5c.828 0 1.5-.672 1.5-1.5v-30c0-.829-.672-1.5-1.5-1.5zm-1.5 30h-7v-27h7z" fill="#335e66"/><path d="m7.5 60h10v15h-10z" fill="#ff6a4d"/><path d="m17.5 58.5h-3.5v-3.5c0-.828-.672-1.5-1.5-1.5s-1.5.672-1.5 1.5v3.5h-3.5c-.828 0-1.5.672-1.5 1.5v15c0 .828.672 1.5 1.5 1.5h3.5v8.5c0 .828.672 1.5 1.5 1.5s1.5-.672 1.5-1.5v-8.5h3.5c.828 0 1.5-.672 1.5-1.5v-15c0-.828-.672-1.5-1.5-1.5zm-1.5 15h-7v-12h7z" fill="#335e66"/><path d="m82.5 10h10v35h-10z" fill="#81e9ff"/><path d="m92.5 8.5h-10c-.828 0-1.5.671-1.5 1.5v35c0 .829.672 1.5 1.5 1.5h3.5v13.5c0 .828.672 1.5 1.5 1.5s1.5-.672 1.5-1.5v-13.5h3.5c.828 0 1.5-.671 1.5-1.5v-35c0-.829-.672-1.5-1.5-1.5zm-1.5 35h-7v-32h7z" fill="#335e66"/><path d="m67.5 40h10v15h-10z" fill="#ff6a4d"/><path d="m77.5 38.5h-3.5v-18.5c0-.829-.672-1.5-1.5-1.5s-1.5.671-1.5 1.5v18.5h-3.5c-.828 0-1.5.671-1.5 1.5v15c0 .828.672 1.5 1.5 1.5h3.5v8.5c0 .828.672 1.5 1.5 1.5s1.5-.672 1.5-1.5v-8.5h3.5c.828 0 1.5-.672 1.5-1.5v-15c0-.829-.672-1.5-1.5-1.5zm-1.5 15h-7v-12h7z" fill="#335e66"/><path d="m37.5 60h10v15h-10z" fill="#ff6a4d"/><path d="m47.5 58.5h-3.5v-18.5c0-.829-.672-1.5-1.5-1.5s-1.5.671-1.5 1.5v18.5h-3.5c-.828 0-1.5.672-1.5 1.5v15c0 .828.672 1.5 1.5 1.5h3.5v3.5c0 .828.672 1.5 1.5 1.5s1.5-.672 1.5-1.5v-3.5h3.5c.828 0 1.5-.672 1.5-1.5v-15c0-.828-.672-1.5-1.5-1.5zm-1.5 15h-7v-12h7z" fill="#335e66"/><path d="m22.5 70h10v15h-10z" fill="#81e9ff"/><path d="m32.5 68.5h-3.5v-8.5c0-.828-.672-1.5-1.5-1.5s-1.5.672-1.5 1.5v8.5h-3.5c-.828 0-1.5.672-1.5 1.5v15c0 .828.672 1.5 1.5 1.5h3.5v3.5c0 .828.672 1.5 1.5 1.5s1.5-.672 1.5-1.5v-3.5h3.5c.828 0 1.5-.672 1.5-1.5v-15c0-.828-.672-1.5-1.5-1.5zm-1.5 15h-7v-12h7z" fill="#335e66"/></g></svg>