<?xml version="1.0" encoding="UTF-8"?>
<!-- Generator: Adobe Illustrator 26.0.1, SVG Export Plug-In . SVG Version: 6.00 Build 0)  -->
<svg xmlns="http://www.w3.org/2000/svg" xmlns:xlink="http://www.w3.org/1999/xlink" version="1.1" id="Capa_1" x="0px" y="0px" viewBox="0 0 512 512" style="enable-background:new 0 0 512 512;" xml:space="preserve" width="512" height="512">
<path d="M395.412,312.037c7.197,0.551,14.384,1.142,21.561,1.781V187.232h-21.561V312.037z M48.572,265.071l-28.081-77.839H0V324.78  c7.173-1.021,14.36-1.999,21.561-2.937v-74.798l24.969,71.728c7.853-0.911,15.721-1.773,23.603-2.584V187.232H48.572V265.071z   M90.865,314.184c19.872-1.806,39.835-3.294,59.889-4.449v-21.247c-12.813,0.741-25.59,1.618-38.329,2.62v-32.163  c8.359-0.083,19.365-0.338,29.116-0.217v-21.245c-7.79-0.019-20.311,0.109-29.116,0.221v-29.035h38.329v-21.435H90.865V314.184z   M164.576,208.667h22.566v99.342c7.174-0.271,14.364-0.494,21.56-0.682v-98.66h22.565v-21.435h-66.691V208.667z M245.089,306.746  l21.561-0.005v-49.049h29.226v-21.244H266.65v-27.781h38.627v-21.435h-60.188V306.746z M512,187.232h-23.682l-15.612,36.185  l-14.027-36.185h-23.326l25.067,64.657l-27.366,63.431c7.571,0.738,15.122,1.526,22.662,2.359l15.915-36.881l15.761,40.656  c8.21,1.056,16.4,2.157,24.573,3.323l0.033-0.014l-28.087-72.438L512,187.232z M340.658,187.22h-21.56V307.8  c19.594,0.674,39.106,1.663,58.539,2.958v-21.244c-12.292-0.82-24.619-1.515-36.979-2.09V187.22z"/>















</svg>
