<svg id="Capa_1" enable-background="new 0 0 512 512" height="512" viewBox="0 0 512 512" width="512" xmlns="http://www.w3.org/2000/svg"><g id="layer1_1_" transform="translate(260.955 41.214)"><path id="path1139" d="m-260.955 178.357h30.461l17.737 45.378 17.967-45.378h29.658l-44.659 107.424h-29.846l12.225-28.466z"/><path id="path1141" d="m-134.236 176.55c-22.887 0-37.355 20.526-37.355 40.966 0 23.001 15.863 41.237 36.921 41.237 15.708 0 21.631-9.571 21.631-9.571v7.455h26.568v-78.281h-26.568v7.116c0 .002-6.608-8.922-21.197-8.922zm5.651 25.157c10.56 0 16.009 8.356 16.009 15.895 0 8.119-5.838 16.086-16.009 16.086-8.43 0-16.048-6.889-16.048-15.741 0-8.976 6.128-16.24 16.048-16.24z"/><path id="path1145" d="m-77.322 256.638v-112.847h27.788v41.954s6.6-9.185 20.424-9.185c16.909 0 26.816 12.599 26.816 30.601v49.476h-27.585v-42.699c0-6.093-2.902-11.978-9.476-11.978-6.692 0-10.179 5.975-10.179 11.978v42.699h-27.788z"/><path id="path1147" d="m45.083 176.56c-26.209 0-41.816 19.93-41.816 41.282 0 24.3 18.896 40.912 41.915 40.912 22.311 0 41.834-15.858 41.834-40.504.001-26.968-20.44-41.69-41.933-41.69zm.251 25.377c9.258 0 15.664 7.711 15.664 15.934 0 7.014-5.969 15.664-15.664 15.664-8.883 0-15.55-7.126-15.55-15.741 0-8.299 5.542-15.857 15.55-15.857z"/><path id="path1153" d="m133.31 176.56c-26.209 0-41.816 19.93-41.816 41.282 0 24.3 18.896 40.912 41.915 40.912 22.311 0 41.834-15.858 41.834-40.504.001-26.968-20.44-41.69-41.933-41.69zm.251 25.377c9.258 0 15.664 7.711 15.664 15.934 0 7.014-5.969 15.664-15.664 15.664-8.883 0-15.55-7.126-15.55-15.741 0-8.299 5.542-15.857 15.55-15.857z"/><circle id="path1155" cx="197.171" cy="239.847" r="18.452"/><path id="path1157" d="m221.686 214.617h-33.219l29.482-70.826h33.095z"/></g></svg>